# xmcd
#
# Track frame offsets: 
#        150
#        13679
#        27465
#        66144
#        96136
#
# Disc length: 1783 seconds
#
# Revision: 3
# Processed by: cddbd v1.5.1PL2 Copyright (c) Steve Scherf et al.
# Submitted via: ExactAudioCopy v0.95b3
#
DISCID=3906f505
DTITLE=Rank 1 - Breathing (Airwave) [US]
DYEAR=2003
DGENRE=Club
TTITLE0=Breathing (Airwave) [Radio Edit]
TTITLE1=Breathing (Airwave) [Breaks Radio Edit]
TTITLE2=Breathing (Airwave) [Original Vocal Mix]
TTITLE3=Breathing (Airwave) [Breaks Mix]
TTITLE4=Breathing (Airwave) [Push's Vocal Mix]
EXTD=YEAR: 2003
EXTT0=
EXTT1=
EXTT2=
EXTT3=
EXTT4=
PLAYORDER=
